#!OML:ASF F:\VICON\USERDATA\INSTALL\Justin_Nancy\Justin_Nancy.ASF
:FULLY-SPECIFIED
:DEGREES
125
root 0.397153 17.3857 -7.38539 1.37356 -3.76573 -4.32194
lowerback 5.51663 1.22113 4.35461
upperback 0.573952 1.96154 2.74471
thorax -2.45272 0.944387 0.240194
lowerneck -17.5366 -3.21106 -9.3379
upperneck 21.4074 -2.96262 4.61936
head 9.92218 -1.60411 2.77251
rclavicle 1.88845e-015 -1.94809e-014
rhumerus -25.688 -6.35053 -79.6241
rradius 32.1422
rwrist 6.87911
rhand -12.3765 8.21714
rfingers 7.12502
rthumb 13.6941 -21.3123
lclavicle 1.88845e-015 -1.94809e-014
lhumerus -34.3534 16.8981 81.3816
lradius 23.3471
lwrist -13.1509
lhand -14.7176 33.584
lfingers 7.12502
lthumb 11.4371 63.252
rfemur 5.85656 7.02373 30.447
rtibia 15.1806
rfoot -15.2847 -4.35863
rtoes -2.62264
lfemur -32.0352 -1.81791 -13.4292
ltibia 30.3033
lfoot -5.78052 11.8478
ltoes -14.1256
126
root 0.403633 17.3788 -7.21435 1.55073 -3.79615 -4.28061
lowerback 5.18894 1.23504 4.37119
upperback 0.552514 1.95954 2.70644
thorax -2.28938 0.945716 0.199455
lowerneck -17.2397 -3.14241 -9.38526
upperneck 21.1915 -2.90141 4.71047
head 9.78705 -1.56919 2.81986
rclavicle -5.31749e-015 7.95139e-015
rhumerus -25.4828 -6.10569 -79.7517
rradius 32.1639
rwrist 6.27349
rhand -13.099 9.56596
rfingers 7.12502
rthumb 12.9978 -20.0091
lclavicle -5.31749e-015 7.95139e-015
lhumerus -34.6733 17.3027 81.0009
lradius 22.6488
lwrist -13.1959
lhand -15.722 30.651
lfingers 7.12502
lthumb 10.4684 60.3703
rfemur 6.81882 6.53804 30.3308
rtibia 14.1833
rfoot -15.2221 -4.13272
rtoes -2.87721
lfemur -32.0478 -2.90204 -13.008
ltibia 27.9342
lfoot -6.04066 12.7604
ltoes -13.0815
127
root 0.407533 17.3726 -7.04037 1.75668 -4.03357 -4.39878
lowerback 4.89462 1.34233 4.45587
upperback 0.490105 2.09146 2.74509
thorax -2.18372 1.01201 0.190195
lowerneck -16.8099 -3.12769 -9.37972
upperneck 20.8588 -2.90815 4.66446
head 9.58961 -1.57674 2.79935
rclavicle 0 2.5842e-014
rhumerus -25.3396 -5.78145 -79.8333
rradius 31.977
rwrist 5.07648
rhand -12.7548 9.84781
rfingers 7.12502
rthumb 13.3296 -19.7059
lclavicle 0 2.5842e-014
lhumerus -34.9319 17.7718 80.7072
lradius 22.0798
lwrist -13.6074
lhand -15.9355 29.5598
lfingers 7.12502
lthumb 10.2624 59.2895
rfemur 7.64589 6.30969 30.4091
rtibia 13.3656
rfoot -15.172 -4.04172
rtoes -3.75466
lfemur -32.1297 -3.79023 -12.3833
ltibia 25.818
lfoot -6.71307 13.6059
ltoes -12.2835
128
root 0.414501 17.355 -6.86882 1.90448 -4.433 -4.55866
lowerback 4.85093 1.47962 4.58773
upperback 0.381617 2.28457 2.78022
thorax -2.26216 1.10453 0.140362
lowerneck -16.7834 -3.09756 -9.48421
upperneck 20.952 -2.86731 4.76911
head 9.61743 -1.55619 2.86057
rclavicle -1.49089e-015 5.56597e-015
rhumerus -25.3244 -5.47415 -79.9072
rradius 31.9506
rwrist 4.36941
rhand -10.9688 8.53269
rfingers 7.12502
rthumb 15.0505 -20.9002
lclavicle -1.49089e-015 5.56597e-015
lhumerus -35.2493 18.133 80.4173
lradius 21.6044
lwrist -14.0062
lhand -15.9156 28.6815
lfingers 7.12502
lthumb 10.2815 58.4102
rfemur 8.4307 6.29405 30.5291
rtibia 12.6948
rfoot -15.1658 -3.928
rtoes -4.05781
lfemur -32.1543 -4.968 -11.5664
ltibia 23.9998
lfoot -7.55736 14.9508
ltoes -10.8189
129
root 0.423547 17.3281 -6.69958 2.04088 -4.67819 -4.7115
lowerback 4.81012 1.58803 4.72735
upperback 0.279248 2.43964 2.8144
thorax -2.33617 1.17798 0.0877417
lowerneck -16.703 -3.05768 -9.46095
upperneck 20.9829 -2.82292 4.75296
head 9.60915 -1.53692 2.85781
rclavicle -7.90169e-015 -3.85642e-014
rhumerus -25.2668 -5.53097 -79.8315
rradius 32.0721
rwrist 4.75263
rhand -6.07901 5.9335
rfingers 7.12502
rthumb 19.7564 -23.0825
lclavicle -7.90169e-015 -3.85642e-014
lhumerus -35.5247 18.4767 80.1449
lradius 21.1411
lwrist -14.7086
lhand -15.6138 28.5789
lfingers 7.12502
lthumb 10.5727 58.293
rfemur 9.18638 6.23871 30.6596
rtibia 12.1904
rfoot -15.2039 -3.91355
rtoes -3.91131
lfemur -32.1511 -6.13027 -10.8458
ltibia 22.4731
lfoot -8.66389 16.0898
ltoes -10.5575
130
root 0.432284 17.3046 -6.52605 2.2094 -4.60049 -4.67646
lowerback 4.50882 1.60392 4.70735
upperback 0.323273 2.43546 2.7813
thorax -2.12117 1.18056 0.0754202
lowerneck -16.9211 -3.07837 -9.16205
upperneck 20.965 -2.85045 4.50068
head 9.63695 -1.55128 2.71411
rclavicle 1.82882e-014 -1.78906e-014
rhumerus -24.9141 -5.72573 -79.7884
rradius 32.2762
rwrist 5.57244
rhand -14.4584 13.6346
rfingers 7.12502
rthumb 11.6871 -16.0194
lclavicle 1.82882e-014 -1.78906e-014
lhumerus -35.519 18.5755 80.085
lradius 20.8363
lwrist -15.0237
lhand -15.3139 28.8051
lfingers 7.12502
lthumb 10.862 58.5042
rfemur 9.77755 5.89993 30.5797
rtibia 11.9921
rfoot -15.3673 -3.94834
rtoes -4.10688
lfemur -32.2836 -7.05793 -10.5409
ltibia 21.1625
lfoot -9.73316 16.7287
ltoes -12.8736
131
root 0.441187 17.2817 -6.35223 2.3101 -4.46755 -4.45194
lowerback 4.25122 1.64276 4.52878
upperback 0.451303 2.45206 2.67561
thorax -1.84679 1.19646 0.0756426
lowerneck -17.3532 -3.19316 -8.95601
upperneck 20.9261 -3.00114 4.40441
head 9.70961 -1.61003 2.62252
rclavicle 2.11209e-014 9.14409e-015
rhumerus -24.4514 -6.35062 -79.7361
rradius 32.2977
rwrist 6.28512
rhand -14.0352 11.9868
rfingers 7.12502
rthumb 12.0952 -17.6436
lclavicle 2.11209e-014 9.14409e-015
lhumerus -35.3532 18.5655 80.1286
lradius 20.5332
lwrist -15.3136
lhand -15.4174 28.4311
lfingers 7.12502
lthumb 10.7621 58.1354
rfemur 10.351 5.57588 30.3056
rtibia 11.9136
rfoot -15.426 -3.95573
rtoes -5.24177
lfemur -32.3152 -7.12114 -10.7765
ltibia 20.1386
lfoot -11.5012 16.1236
ltoes -13.0758
132
root 0.448295 17.2684 -6.18148 2.46458 -4.54536 -4.40388
lowerback 4.04401 1.68686 4.49413
upperback 0.406483 2.49692 2.64214
thorax -1.77543 1.21988 0.0642121
lowerneck -17.2226 -3.18896 -8.89189
upperneck 20.8006 -3.01478 4.36852
head 9.64037 -1.61491 2.59666
rclavicle -1.86361e-014 -3.18055e-014
rhumerus -24.4313 -6.19427 -79.7946
rradius 32.4583
rwrist 6.10004
rhand -14.0326 10.2031
rfingers 7.12502
rthumb 12.0977 -19.4272
lclavicle -1.86361e-014 -3.18055e-014
lhumerus -35.6147 18.5626 80.0455
lradius 20.3955
lwrist -15.543
lhand -15.1976 28.0195
lfingers 7.12502
lthumb 10.9742 57.7127
rfemur 10.971 5.70123 30.2483
rtibia 11.6809
rfoot -15.4447 -4.01871
rtoes -5.7797
lfemur -32.3551 -6.93678 -10.8933
ltibia 19.4478
lfoot -12.7963 15.4436
ltoes -14.7642
